<mxfile host="app.diagrams.net" agent="Mozilla/5.0 (Windows NT 10.0; Win64; x64) AppleWebKit/537.36 (KHTML, like Gecko) Chrome/131.0.0.0 Safari/537.36 Edg/131.0.0.0" version="26.0.8">
  <diagram name="Seite-1" id="oYdefQSi5EIKy7HVQqlo">
    <mxGraphModel dx="2405" dy="703" grid="1" gridSize="10" guides="1" tooltips="1" connect="1" arrows="1" fold="1" page="1" pageScale="1" pageWidth="827" pageHeight="1169" math="0" shadow="0">
      <root>
        <mxCell id="0" />
        <mxCell id="1" parent="0" />
        <mxCell id="qCA15K4Oq_yyffvuVjH3-4" value="" style="group" vertex="1" connectable="0" parent="1">
          <mxGeometry x="90" y="330" width="120" height="76" as="geometry" />
        </mxCell>
        <mxCell id="qCA15K4Oq_yyffvuVjH3-5" value="Artikel" style="rounded=0;whiteSpace=wrap;html=1;container=0;" vertex="1" parent="qCA15K4Oq_yyffvuVjH3-4">
          <mxGeometry width="120" height="60" as="geometry" />
        </mxCell>
        <mxCell id="qCA15K4Oq_yyffvuVjH3-6" value="Artikelid, Name, Typ, Kategorie, Mindeshaltbarkeitsdatum" style="text;html=1;strokeColor=none;fillColor=none;align=left;verticalAlign=top;whiteSpace=wrap;rounded=0;fontFamily=Helvetica;horizontal=1;container=0;" vertex="1" parent="qCA15K4Oq_yyffvuVjH3-4">
          <mxGeometry y="56" width="60" height="20" as="geometry" />
        </mxCell>
        <mxCell id="qCA15K4Oq_yyffvuVjH3-8" value="" style="group" vertex="1" connectable="0" parent="1">
          <mxGeometry x="70" y="111.6" width="210" height="76" as="geometry" />
        </mxCell>
        <mxCell id="qCA15K4Oq_yyffvuVjH3-9" value="Kunde" style="rounded=0;whiteSpace=wrap;html=1;container=0;" vertex="1" parent="qCA15K4Oq_yyffvuVjH3-8">
          <mxGeometry y="-20" width="120" height="60" as="geometry" />
        </mxCell>
        <mxCell id="qCA15K4Oq_yyffvuVjH3-10" value="Kid, Kundentyp, Vorname, Nachname, Plz, Ort, Straße ,Hausnummer&amp;nbsp;" style="text;html=1;strokeColor=none;fillColor=none;align=left;verticalAlign=top;whiteSpace=wrap;rounded=0;fontFamily=Helvetica;horizontal=1;container=0;" vertex="1" parent="qCA15K4Oq_yyffvuVjH3-8">
          <mxGeometry y="56" width="210" height="20" as="geometry" />
        </mxCell>
        <mxCell id="qCA15K4Oq_yyffvuVjH3-14" value="" style="group" vertex="1" connectable="0" parent="1">
          <mxGeometry x="354" y="91.6" width="130" height="76" as="geometry" />
        </mxCell>
        <mxCell id="qCA15K4Oq_yyffvuVjH3-15" value="Verkauf" style="rounded=0;whiteSpace=wrap;html=1;" vertex="1" parent="qCA15K4Oq_yyffvuVjH3-14">
          <mxGeometry width="120" height="60" as="geometry" />
        </mxCell>
        <mxCell id="qCA15K4Oq_yyffvuVjH3-16" value="" style="endArrow=none;html=1;rounded=0;exitX=0;exitY=0.5;exitDx=0;exitDy=0;entryX=0.25;entryY=0;entryDx=0;entryDy=0;" edge="1" parent="qCA15K4Oq_yyffvuVjH3-14" source="qCA15K4Oq_yyffvuVjH3-15" target="qCA15K4Oq_yyffvuVjH3-15">
          <mxGeometry width="50" height="50" relative="1" as="geometry">
            <mxPoint x="209" y="220" as="sourcePoint" />
            <mxPoint x="259" y="170" as="targetPoint" />
          </mxGeometry>
        </mxCell>
        <mxCell id="qCA15K4Oq_yyffvuVjH3-17" value="" style="endArrow=none;html=1;rounded=0;entryX=0.25;entryY=1;entryDx=0;entryDy=0;exitX=0;exitY=0.5;exitDx=0;exitDy=0;" edge="1" parent="qCA15K4Oq_yyffvuVjH3-14" source="qCA15K4Oq_yyffvuVjH3-15" target="qCA15K4Oq_yyffvuVjH3-15">
          <mxGeometry width="50" height="50" relative="1" as="geometry">
            <mxPoint x="210" y="300" as="sourcePoint" />
            <mxPoint x="220" y="240" as="targetPoint" />
          </mxGeometry>
        </mxCell>
        <mxCell id="qCA15K4Oq_yyffvuVjH3-18" value="Verkaufsid, Kid, Datum, Vertriebskanal," style="text;html=1;strokeColor=none;fillColor=none;align=left;verticalAlign=top;whiteSpace=wrap;rounded=0;fontFamily=Helvetica;horizontal=1;" vertex="1" parent="qCA15K4Oq_yyffvuVjH3-14">
          <mxGeometry y="56" width="130" height="20" as="geometry" />
        </mxCell>
        <mxCell id="qCA15K4Oq_yyffvuVjH3-19" value="" style="group" vertex="1" connectable="0" parent="1">
          <mxGeometry x="630" y="120" width="150" height="76" as="geometry" />
        </mxCell>
        <mxCell id="qCA15K4Oq_yyffvuVjH3-20" value="Verkaufsposition" style="rounded=0;whiteSpace=wrap;html=1;" vertex="1" parent="qCA15K4Oq_yyffvuVjH3-19">
          <mxGeometry width="120" height="60" as="geometry" />
        </mxCell>
        <mxCell id="qCA15K4Oq_yyffvuVjH3-21" value="" style="endArrow=none;html=1;rounded=0;entryX=0;entryY=0.5;entryDx=0;entryDy=0;exitX=0.25;exitY=1;exitDx=0;exitDy=0;" edge="1" parent="qCA15K4Oq_yyffvuVjH3-19" source="qCA15K4Oq_yyffvuVjH3-20" target="qCA15K4Oq_yyffvuVjH3-20">
          <mxGeometry width="50" height="50" relative="1" as="geometry">
            <mxPoint y="220" as="sourcePoint" />
            <mxPoint x="50" y="170" as="targetPoint" />
          </mxGeometry>
        </mxCell>
        <mxCell id="qCA15K4Oq_yyffvuVjH3-22" value="" style="endArrow=none;html=1;rounded=0;entryX=0.75;entryY=0;entryDx=0;entryDy=0;exitX=1;exitY=0.5;exitDx=0;exitDy=0;" edge="1" parent="qCA15K4Oq_yyffvuVjH3-19" source="qCA15K4Oq_yyffvuVjH3-20" target="qCA15K4Oq_yyffvuVjH3-20">
          <mxGeometry width="50" height="50" relative="1" as="geometry">
            <mxPoint x="10" y="230" as="sourcePoint" />
            <mxPoint x="60" y="180" as="targetPoint" />
          </mxGeometry>
        </mxCell>
        <mxCell id="qCA15K4Oq_yyffvuVjH3-23" value="" style="endArrow=none;html=1;rounded=0;exitX=0.75;exitY=1;exitDx=0;exitDy=0;entryX=1;entryY=0.5;entryDx=0;entryDy=0;" edge="1" parent="qCA15K4Oq_yyffvuVjH3-19" source="qCA15K4Oq_yyffvuVjH3-20" target="qCA15K4Oq_yyffvuVjH3-20">
          <mxGeometry width="50" height="50" relative="1" as="geometry">
            <mxPoint x="20" y="240" as="sourcePoint" />
            <mxPoint x="10" y="220" as="targetPoint" />
          </mxGeometry>
        </mxCell>
        <mxCell id="qCA15K4Oq_yyffvuVjH3-24" value="" style="endArrow=none;html=1;rounded=0;entryX=0;entryY=0.5;entryDx=0;entryDy=0;exitX=0.25;exitY=0;exitDx=0;exitDy=0;" edge="1" parent="qCA15K4Oq_yyffvuVjH3-19" source="qCA15K4Oq_yyffvuVjH3-20" target="qCA15K4Oq_yyffvuVjH3-20">
          <mxGeometry width="50" height="50" relative="1" as="geometry">
            <mxPoint y="220" as="sourcePoint" />
            <mxPoint x="50" y="170" as="targetPoint" />
          </mxGeometry>
        </mxCell>
        <mxCell id="qCA15K4Oq_yyffvuVjH3-25" value="Vposid, Verkaufsid, Menge" style="text;html=1;strokeColor=none;fillColor=none;align=left;verticalAlign=top;whiteSpace=wrap;rounded=0;fontFamily=Helvetica;horizontal=1;" vertex="1" parent="qCA15K4Oq_yyffvuVjH3-19">
          <mxGeometry y="56" width="150" height="20" as="geometry" />
        </mxCell>
        <mxCell id="qCA15K4Oq_yyffvuVjH3-26" value="" style="group" vertex="1" connectable="0" parent="1">
          <mxGeometry x="460" y="472" width="120" height="80" as="geometry" />
        </mxCell>
        <mxCell id="qCA15K4Oq_yyffvuVjH3-27" value="Einkauf" style="rounded=0;whiteSpace=wrap;html=1;" vertex="1" parent="qCA15K4Oq_yyffvuVjH3-26">
          <mxGeometry y="20" width="120" height="60" as="geometry" />
        </mxCell>
        <mxCell id="qCA15K4Oq_yyffvuVjH3-28" value="" style="endArrow=none;html=1;rounded=0;exitX=0;exitY=0.5;exitDx=0;exitDy=0;entryX=0.25;entryY=0;entryDx=0;entryDy=0;" edge="1" parent="qCA15K4Oq_yyffvuVjH3-26" source="qCA15K4Oq_yyffvuVjH3-27" target="qCA15K4Oq_yyffvuVjH3-27">
          <mxGeometry width="50" height="50" relative="1" as="geometry">
            <mxPoint x="209" y="240" as="sourcePoint" />
            <mxPoint x="259" y="190" as="targetPoint" />
          </mxGeometry>
        </mxCell>
        <mxCell id="qCA15K4Oq_yyffvuVjH3-29" value="" style="endArrow=none;html=1;rounded=0;entryX=0.25;entryY=1;entryDx=0;entryDy=0;exitX=0;exitY=0.5;exitDx=0;exitDy=0;" edge="1" parent="qCA15K4Oq_yyffvuVjH3-26" source="qCA15K4Oq_yyffvuVjH3-27" target="qCA15K4Oq_yyffvuVjH3-27">
          <mxGeometry width="50" height="50" relative="1" as="geometry">
            <mxPoint x="210" y="320" as="sourcePoint" />
            <mxPoint x="220" y="260" as="targetPoint" />
          </mxGeometry>
        </mxCell>
        <mxCell id="qCA15K4Oq_yyffvuVjH3-30" value="Lid, Eid, Datum" style="text;html=1;strokeColor=none;fillColor=none;align=left;verticalAlign=bottom;whiteSpace=wrap;rounded=0;fontFamily=Helvetica;horizontal=1;" vertex="1" parent="qCA15K4Oq_yyffvuVjH3-26">
          <mxGeometry width="120" height="20" as="geometry" />
        </mxCell>
        <mxCell id="qCA15K4Oq_yyffvuVjH3-41" value="" style="group" vertex="1" connectable="0" parent="1">
          <mxGeometry x="80" y="230" width="120" height="80" as="geometry" />
        </mxCell>
        <mxCell id="qCA15K4Oq_yyffvuVjH3-42" value="Standortid, Bezeichnung&amp;nbsp;" style="text;html=1;strokeColor=none;fillColor=none;align=left;verticalAlign=bottom;whiteSpace=wrap;rounded=0;fontFamily=Helvetica;horizontal=1;" vertex="1" parent="qCA15K4Oq_yyffvuVjH3-41">
          <mxGeometry width="60" height="20" as="geometry" />
        </mxCell>
        <mxCell id="qCA15K4Oq_yyffvuVjH3-43" value="Lager" style="rounded=0;whiteSpace=wrap;html=1;" vertex="1" parent="qCA15K4Oq_yyffvuVjH3-41">
          <mxGeometry y="20" width="120" height="60" as="geometry" />
        </mxCell>
        <mxCell id="qCA15K4Oq_yyffvuVjH3-44" value="" style="group" vertex="1" connectable="0" parent="1">
          <mxGeometry x="100" y="472" width="210" height="80" as="geometry" />
        </mxCell>
        <mxCell id="qCA15K4Oq_yyffvuVjH3-45" value="Lid, Hofname, Straße, Plz, Ort, Hausnummer, Getreidearten" style="text;html=1;strokeColor=none;fillColor=none;align=left;verticalAlign=bottom;whiteSpace=wrap;rounded=0;fontFamily=Helvetica;horizontal=1;" vertex="1" parent="qCA15K4Oq_yyffvuVjH3-44">
          <mxGeometry width="210" height="20" as="geometry" />
        </mxCell>
        <mxCell id="qCA15K4Oq_yyffvuVjH3-46" value="Lieferant ( Landwirt)" style="rounded=0;whiteSpace=wrap;html=1;" vertex="1" parent="qCA15K4Oq_yyffvuVjH3-44">
          <mxGeometry y="20" width="120" height="60" as="geometry" />
        </mxCell>
        <mxCell id="qCA15K4Oq_yyffvuVjH3-48" value="" style="group" vertex="1" connectable="0" parent="1">
          <mxGeometry x="340" y="250" width="120" height="76" as="geometry" />
        </mxCell>
        <mxCell id="qCA15K4Oq_yyffvuVjH3-49" value="Bestand" style="rounded=0;whiteSpace=wrap;html=1;" vertex="1" parent="qCA15K4Oq_yyffvuVjH3-48">
          <mxGeometry width="120" height="60" as="geometry" />
        </mxCell>
        <mxCell id="qCA15K4Oq_yyffvuVjH3-50" value="" style="endArrow=none;html=1;rounded=0;exitX=0;exitY=0.5;exitDx=0;exitDy=0;entryX=0.25;entryY=0;entryDx=0;entryDy=0;" edge="1" parent="qCA15K4Oq_yyffvuVjH3-48" source="qCA15K4Oq_yyffvuVjH3-49" target="qCA15K4Oq_yyffvuVjH3-49">
          <mxGeometry width="50" height="50" relative="1" as="geometry">
            <mxPoint x="209" y="220" as="sourcePoint" />
            <mxPoint x="259" y="170" as="targetPoint" />
          </mxGeometry>
        </mxCell>
        <mxCell id="qCA15K4Oq_yyffvuVjH3-51" value="" style="endArrow=none;html=1;rounded=0;entryX=0.25;entryY=1;entryDx=0;entryDy=0;exitX=0;exitY=0.5;exitDx=0;exitDy=0;" edge="1" parent="qCA15K4Oq_yyffvuVjH3-48" source="qCA15K4Oq_yyffvuVjH3-49" target="qCA15K4Oq_yyffvuVjH3-49">
          <mxGeometry width="50" height="50" relative="1" as="geometry">
            <mxPoint x="210" y="300" as="sourcePoint" />
            <mxPoint x="220" y="240" as="targetPoint" />
          </mxGeometry>
        </mxCell>
        <mxCell id="qCA15K4Oq_yyffvuVjH3-52" value="Text" style="text;html=1;strokeColor=none;fillColor=none;align=left;verticalAlign=top;whiteSpace=wrap;rounded=0;fontFamily=Helvetica;horizontal=1;" vertex="1" parent="qCA15K4Oq_yyffvuVjH3-48">
          <mxGeometry y="56" width="60" height="20" as="geometry" />
        </mxCell>
        <mxCell id="qCA15K4Oq_yyffvuVjH3-54" value="" style="endArrow=classic;html=1;rounded=0;endFill=1;exitX=1;exitY=0.5;exitDx=0;exitDy=0;" edge="1" parent="1" source="qCA15K4Oq_yyffvuVjH3-46">
          <mxGeometry width="50" height="50" relative="1" as="geometry">
            <mxPoint x="410" y="470" as="sourcePoint" />
            <mxPoint x="460" y="520" as="targetPoint" />
          </mxGeometry>
        </mxCell>
        <mxCell id="qCA15K4Oq_yyffvuVjH3-55" value="" style="group" vertex="1" connectable="0" parent="1">
          <mxGeometry x="580" y="520" width="67" height="1.2000000000000028" as="geometry" />
        </mxCell>
        <mxCell id="qCA15K4Oq_yyffvuVjH3-56" value="" style="endArrow=classic;html=1;rounded=0;endFill=1;" edge="1" parent="qCA15K4Oq_yyffvuVjH3-55">
          <mxGeometry width="50" height="50" relative="1" as="geometry">
            <mxPoint x="57" y="0.6000000000000014" as="sourcePoint" />
            <mxPoint x="67" y="0.6000000000000014" as="targetPoint" />
          </mxGeometry>
        </mxCell>
        <mxCell id="qCA15K4Oq_yyffvuVjH3-57" value="" style="endArrow=none;html=1;rounded=0;shape=link;" edge="1" parent="qCA15K4Oq_yyffvuVjH3-55">
          <mxGeometry width="50" height="50" relative="1" as="geometry">
            <mxPoint y="0.6000000000000014" as="sourcePoint" />
            <mxPoint x="60" y="0.6000000000000014" as="targetPoint" />
          </mxGeometry>
        </mxCell>
        <mxCell id="qCA15K4Oq_yyffvuVjH3-58" value="" style="rounded=0;whiteSpace=wrap;html=1;strokeColor=none;" vertex="1" parent="qCA15K4Oq_yyffvuVjH3-55">
          <mxGeometry x="55" width="4.8" height="1.2" as="geometry" />
        </mxCell>
        <mxCell id="qCA15K4Oq_yyffvuVjH3-59" value="" style="endArrow=classic;html=1;rounded=0;endFill=1;exitX=1;exitY=0.5;exitDx=0;exitDy=0;" edge="1" parent="1" source="qCA15K4Oq_yyffvuVjH3-5">
          <mxGeometry width="50" height="50" relative="1" as="geometry">
            <mxPoint x="410" y="350" as="sourcePoint" />
            <mxPoint x="650" y="500" as="targetPoint" />
            <Array as="points">
              <mxPoint x="280" y="360" />
              <mxPoint x="600" y="360" />
              <mxPoint x="600" y="500" />
            </Array>
          </mxGeometry>
        </mxCell>
        <mxCell id="qCA15K4Oq_yyffvuVjH3-63" value="" style="group" vertex="1" connectable="0" parent="1">
          <mxGeometry x="647" y="472" width="120" height="80" as="geometry" />
        </mxCell>
        <mxCell id="qCA15K4Oq_yyffvuVjH3-64" value="Einkaufspos" style="rounded=0;whiteSpace=wrap;html=1;" vertex="1" parent="qCA15K4Oq_yyffvuVjH3-63">
          <mxGeometry y="20" width="120" height="60" as="geometry" />
        </mxCell>
        <mxCell id="qCA15K4Oq_yyffvuVjH3-65" value="" style="endArrow=none;html=1;rounded=0;entryX=0;entryY=0.5;entryDx=0;entryDy=0;exitX=0.25;exitY=1;exitDx=0;exitDy=0;" edge="1" parent="qCA15K4Oq_yyffvuVjH3-63" source="qCA15K4Oq_yyffvuVjH3-64" target="qCA15K4Oq_yyffvuVjH3-64">
          <mxGeometry width="50" height="50" relative="1" as="geometry">
            <mxPoint y="240" as="sourcePoint" />
            <mxPoint x="50" y="190" as="targetPoint" />
          </mxGeometry>
        </mxCell>
        <mxCell id="qCA15K4Oq_yyffvuVjH3-66" value="" style="endArrow=none;html=1;rounded=0;entryX=0.75;entryY=0;entryDx=0;entryDy=0;exitX=1;exitY=0.5;exitDx=0;exitDy=0;" edge="1" parent="qCA15K4Oq_yyffvuVjH3-63" source="qCA15K4Oq_yyffvuVjH3-64" target="qCA15K4Oq_yyffvuVjH3-64">
          <mxGeometry width="50" height="50" relative="1" as="geometry">
            <mxPoint x="10" y="250" as="sourcePoint" />
            <mxPoint x="60" y="200" as="targetPoint" />
          </mxGeometry>
        </mxCell>
        <mxCell id="qCA15K4Oq_yyffvuVjH3-67" value="" style="endArrow=none;html=1;rounded=0;exitX=0.75;exitY=1;exitDx=0;exitDy=0;entryX=1;entryY=0.5;entryDx=0;entryDy=0;" edge="1" parent="qCA15K4Oq_yyffvuVjH3-63" source="qCA15K4Oq_yyffvuVjH3-64" target="qCA15K4Oq_yyffvuVjH3-64">
          <mxGeometry width="50" height="50" relative="1" as="geometry">
            <mxPoint x="20" y="260" as="sourcePoint" />
            <mxPoint x="10" y="240" as="targetPoint" />
          </mxGeometry>
        </mxCell>
        <mxCell id="qCA15K4Oq_yyffvuVjH3-68" value="" style="endArrow=none;html=1;rounded=0;entryX=0;entryY=0.5;entryDx=0;entryDy=0;exitX=0.25;exitY=0;exitDx=0;exitDy=0;" edge="1" parent="qCA15K4Oq_yyffvuVjH3-63" source="qCA15K4Oq_yyffvuVjH3-64" target="qCA15K4Oq_yyffvuVjH3-64">
          <mxGeometry width="50" height="50" relative="1" as="geometry">
            <mxPoint y="240" as="sourcePoint" />
            <mxPoint x="50" y="190" as="targetPoint" />
          </mxGeometry>
        </mxCell>
        <mxCell id="qCA15K4Oq_yyffvuVjH3-69" value="Eposid, Eid, Menge" style="text;html=1;strokeColor=none;fillColor=none;align=left;verticalAlign=bottom;whiteSpace=wrap;rounded=0;fontFamily=Helvetica;horizontal=1;" vertex="1" parent="qCA15K4Oq_yyffvuVjH3-63">
          <mxGeometry width="120" height="20" as="geometry" />
        </mxCell>
        <mxCell id="qCA15K4Oq_yyffvuVjH3-71" value="" style="endArrow=classic;html=1;rounded=0;endFill=1;exitX=1;exitY=0.5;exitDx=0;exitDy=0;entryX=0;entryY=0.5;entryDx=0;entryDy=0;" edge="1" parent="1" source="qCA15K4Oq_yyffvuVjH3-9" target="qCA15K4Oq_yyffvuVjH3-15">
          <mxGeometry width="50" height="50" relative="1" as="geometry">
            <mxPoint x="410" y="230" as="sourcePoint" />
            <mxPoint x="470" y="230" as="targetPoint" />
          </mxGeometry>
        </mxCell>
        <mxCell id="qCA15K4Oq_yyffvuVjH3-72" value="" style="group" vertex="1" connectable="0" parent="1">
          <mxGeometry x="474" y="149" width="156" height="1.2" as="geometry" />
        </mxCell>
        <mxCell id="qCA15K4Oq_yyffvuVjH3-73" value="" style="endArrow=classic;html=1;rounded=0;endFill=1;" edge="1" parent="qCA15K4Oq_yyffvuVjH3-72">
          <mxGeometry width="50" height="50" relative="1" as="geometry">
            <mxPoint x="132.71641791044777" y="0.6" as="sourcePoint" />
            <mxPoint x="156" y="0.6" as="targetPoint" />
          </mxGeometry>
        </mxCell>
        <mxCell id="qCA15K4Oq_yyffvuVjH3-74" value="" style="endArrow=none;html=1;rounded=0;shape=link;" edge="1" parent="qCA15K4Oq_yyffvuVjH3-72">
          <mxGeometry width="50" height="50" relative="1" as="geometry">
            <mxPoint y="0.6" as="sourcePoint" />
            <mxPoint x="139.70149253731344" y="0.6" as="targetPoint" />
          </mxGeometry>
        </mxCell>
        <mxCell id="qCA15K4Oq_yyffvuVjH3-75" value="" style="rounded=0;whiteSpace=wrap;html=1;strokeColor=none;" vertex="1" parent="qCA15K4Oq_yyffvuVjH3-72">
          <mxGeometry x="128.05970149253733" width="11.176119402985075" height="1.199999999999997" as="geometry" />
        </mxCell>
        <mxCell id="qCA15K4Oq_yyffvuVjH3-78" value="" style="endArrow=classic;html=1;rounded=0;endFill=1;exitX=1;exitY=0.25;exitDx=0;exitDy=0;entryX=-0.041;entryY=-0.405;entryDx=0;entryDy=0;entryPerimeter=0;" edge="1" parent="1" source="qCA15K4Oq_yyffvuVjH3-5" target="qCA15K4Oq_yyffvuVjH3-25">
          <mxGeometry width="50" height="50" relative="1" as="geometry">
            <mxPoint x="410" y="350" as="sourcePoint" />
            <mxPoint x="470" y="350" as="targetPoint" />
            <Array as="points">
              <mxPoint x="490" y="345" />
              <mxPoint x="490" y="168" />
            </Array>
          </mxGeometry>
        </mxCell>
        <mxCell id="qCA15K4Oq_yyffvuVjH3-87" value="" style="endArrow=classic;html=1;rounded=0;endFill=1;exitX=1;exitY=0.5;exitDx=0;exitDy=0;" edge="1" parent="1" source="qCA15K4Oq_yyffvuVjH3-43">
          <mxGeometry width="50" height="50" relative="1" as="geometry">
            <mxPoint x="630" y="270" as="sourcePoint" />
            <mxPoint x="340" y="280" as="targetPoint" />
          </mxGeometry>
        </mxCell>
        <mxCell id="qCA15K4Oq_yyffvuVjH3-88" value="" style="endArrow=classic;html=1;rounded=0;endFill=1;entryX=0;entryY=0;entryDx=0;entryDy=0;" edge="1" parent="1" target="qCA15K4Oq_yyffvuVjH3-52">
          <mxGeometry width="50" height="50" relative="1" as="geometry">
            <mxPoint x="210" y="340" as="sourcePoint" />
            <mxPoint x="690" y="270" as="targetPoint" />
          </mxGeometry>
        </mxCell>
        <mxCell id="qCA15K4Oq_yyffvuVjH3-89" value="" style="group" vertex="1" connectable="0" parent="1">
          <mxGeometry x="-120" y="340" width="120" height="76" as="geometry" />
        </mxCell>
        <mxCell id="qCA15K4Oq_yyffvuVjH3-90" value="Artikeltyp" style="rounded=0;whiteSpace=wrap;html=1;container=0;" vertex="1" parent="qCA15K4Oq_yyffvuVjH3-89">
          <mxGeometry width="120" height="60" as="geometry" />
        </mxCell>
        <mxCell id="qCA15K4Oq_yyffvuVjH3-91" value="Text" style="text;html=1;strokeColor=none;fillColor=none;align=left;verticalAlign=top;whiteSpace=wrap;rounded=0;fontFamily=Helvetica;horizontal=1;container=0;" vertex="1" parent="qCA15K4Oq_yyffvuVjH3-89">
          <mxGeometry y="56" width="60" height="20" as="geometry" />
        </mxCell>
        <mxCell id="qCA15K4Oq_yyffvuVjH3-92" value="" style="group" vertex="1" connectable="0" parent="1">
          <mxGeometry x="4" y="360" width="67" height="1.2000000000000028" as="geometry" />
        </mxCell>
        <mxCell id="qCA15K4Oq_yyffvuVjH3-93" value="" style="endArrow=classic;html=1;rounded=0;endFill=1;" edge="1" parent="qCA15K4Oq_yyffvuVjH3-92">
          <mxGeometry width="50" height="50" relative="1" as="geometry">
            <mxPoint x="57" y="0.6000000000000014" as="sourcePoint" />
            <mxPoint x="67" y="0.6000000000000014" as="targetPoint" />
          </mxGeometry>
        </mxCell>
        <mxCell id="qCA15K4Oq_yyffvuVjH3-94" value="" style="endArrow=none;html=1;rounded=0;shape=link;" edge="1" parent="qCA15K4Oq_yyffvuVjH3-92">
          <mxGeometry width="50" height="50" relative="1" as="geometry">
            <mxPoint y="0.6000000000000014" as="sourcePoint" />
            <mxPoint x="60" y="0.6000000000000014" as="targetPoint" />
          </mxGeometry>
        </mxCell>
        <mxCell id="qCA15K4Oq_yyffvuVjH3-95" value="" style="rounded=0;whiteSpace=wrap;html=1;strokeColor=none;" vertex="1" parent="qCA15K4Oq_yyffvuVjH3-92">
          <mxGeometry x="55" width="4.8" height="1.2" as="geometry" />
        </mxCell>
        <mxCell id="qCA15K4Oq_yyffvuVjH3-96" style="edgeStyle=orthogonalEdgeStyle;rounded=0;orthogonalLoop=1;jettySize=auto;html=1;" edge="1" parent="1" source="qCA15K4Oq_yyffvuVjH3-95" target="qCA15K4Oq_yyffvuVjH3-5">
          <mxGeometry relative="1" as="geometry" />
        </mxCell>
      </root>
    </mxGraphModel>
  </diagram>
</mxfile>
